<?xml version="1.0" encoding="utf-8"?>
<!-- Generator: Adobe Illustrator 24.1.2, SVG Export Plug-In . SVG Version: 6.00 Build 0)  -->
<svg version="1.1" id="Capa_1" xmlns="http://www.w3.org/2000/svg" xmlns:xlink="http://www.w3.org/1999/xlink" x="0px" y="0px"
	 viewBox="0 0 54.06 53.89" style="enable-background:new 0 0 54.06 53.89;" xml:space="preserve">
<style type="text/css">
	.st0{fill:#004762;}
	.st1{fill:#00EE99;}
	.st2{fill:#FFFFFF;}
	.st3{fill:#004762;stroke:#004762;stroke-width:0.4631;stroke-miterlimit:10;}
	.st4{fill:#004762;stroke:#004762;stroke-miterlimit:10;}
	.st5{fill:none;stroke:#004762;stroke-width:2;stroke-miterlimit:10;}
	.st6{fill:url(#XMLID_354_);}
	.st7{fill:url(#XMLID_355_);}
	.st8{fill:url(#XMLID_356_);}
	.st9{fill:url(#XMLID_357_);}
	.st10{fill:#004961;}
	.st11{fill:none;stroke:#004961;stroke-width:6;stroke-miterlimit:10;}
	.st12{fill:url(#SVGID_1_);}
	.st13{fill:#39B54A;}
	.st14{fill:#C1272D;}
	.st15{fill:none;stroke:#00EE99;stroke-miterlimit:10;}
	.st16{fill:url(#SVGID_2_);}
	.st17{fill:none;stroke:#004961;stroke-width:2;stroke-miterlimit:10;}
	.st18{fill:url(#SVGID_3_);}
	.st19{fill:#FBB03B;}
	.st20{fill:url(#XMLID_358_);}
	.st21{fill-rule:evenodd;clip-rule:evenodd;fill:#004762;}
	.st22{fill-rule:evenodd;clip-rule:evenodd;fill:#00EE99;}
	.st23{fill:url(#SVGID_4_);}
	.st24{fill:#EBEDEF;}
	.st25{fill:none;stroke:#004762;stroke-width:0.75;stroke-miterlimit:10;}
	.st26{fill:none;stroke:#004762;stroke-miterlimit:10;}
	.st27{fill:#FDC200;}
	.st28{fill:#45C1F1;}
	.st29{fill:#004762;stroke:#FFFFFF;stroke-miterlimit:10;}
	.st30{fill:none;stroke:#004762;stroke-width:0.5;stroke-miterlimit:10;}
	.st31{fill:none;stroke:#39B54A;stroke-miterlimit:10;}
	.st32{fill:url(#SVGID_5_);}
	.st33{fill:url(#SVGID_6_);}
	.st34{fill:none;}
</style>
<path id="XMLID_22_" class="st1" d="M53.59,25.34l-2.75-4.81c-0.28-2.19,0.93-7.02-1.66-8.24c0,0-4.64-2.69-4.64-2.69
	c-1.33-1.76-2.77-6.72-5.67-6.41c0,0-5.5,0-5.5,0c-1.98-0.87-5.75-4.32-8.07-2.69c0,0-4.69,2.69-4.69,2.69
	c-7.61-0.21-7.34-0.48-10.99,6.3c-6.99,3.75-6.66,3.25-6.47,11.16c-0.52,1.18-3.24,4.91-3.09,6.24c-0.16,1.31,2.58,5.09,3.09,6.24
	c-0.21,7.84-0.47,7.46,6.47,11.16c3.71,6.82,3.27,6.48,10.99,6.3c0,0,4.69,2.69,4.69,2.69c2.27,1.68,6.05-1.85,8.01-2.69
	c0,0,5.5,0,5.5,0c2.85,0.31,4.38-4.67,5.67-6.41c0,0,4.64-2.69,4.64-2.69c2.58-1.14,1.42-6.12,1.66-8.24
	C51.49,31.31,55.21,27.61,53.59,25.34z M27.43,15.04c0.71-0.85,2.08-1.29,2.86-0.29c0.7,1.4,6.8,5.69,4.52,7.5
	c-0.72,0.87-2.08,1.28-2.86,0.29C31.26,21.17,25.13,16.81,27.43,15.04z M22.45,33.3c-0.74,0.86-1.98,1.26-2.86,0.34
	c-0.47-0.81-5.42-5.29-5.04-6.35c0.2-1.47,2.27-2.81,3.43-1.49C18.69,27.19,24.8,31.5,22.45,33.3z M38.88,39.71
	c-0.69,0.61-1.69,0.53-2.35-0.11L26.51,28.49c-0.56,0.24-2.2,2.66-2.92,1.72c0,0-4.92-5.5-4.92-5.5c-1.24-0.66,6.34-6.22,6.47-6.7
	c0.76-1.13,5.31,5.37,5.84,5.55c0.84,0.8-1.75,2.18-2.06,2.69l9.96,11.11C39.56,38.05,39.51,39.08,38.88,39.71z"/>
<rect class="st34" width="54.06" height="53.89"/>
</svg>
