<?xml version="1.0" encoding="utf-8"?>
<!-- Generator: Adobe Illustrator 24.1.2, SVG Export Plug-In . SVG Version: 6.00 Build 0)  -->
<svg version="1.1" id="Capa_1" xmlns="http://www.w3.org/2000/svg" xmlns:xlink="http://www.w3.org/1999/xlink" x="0px" y="0px"
	 viewBox="0 0 17.53 14.88" style="enable-background:new 0 0 17.53 14.88;" xml:space="preserve">
<style type="text/css">
	.st0{fill:#004762;}
	.st1{fill:#00EE99;}
	.st2{fill:#FFFFFF;}
	.st3{fill:#004762;stroke:#004762;stroke-width:0.4631;stroke-miterlimit:10;}
	.st4{fill:#004762;stroke:#004762;stroke-miterlimit:10;}
	.st5{fill:none;stroke:#004762;stroke-width:2;stroke-miterlimit:10;}
	.st6{fill:url(#XMLID_354_);}
	.st7{fill:url(#XMLID_355_);}
	.st8{fill:url(#XMLID_356_);}
	.st9{fill:url(#XMLID_357_);}
	.st10{fill:#004961;}
	.st11{fill:none;stroke:#004961;stroke-width:6;stroke-miterlimit:10;}
	.st12{fill:url(#SVGID_1_);}
	.st13{fill:#39B54A;}
	.st14{fill:#C1272D;}
	.st15{fill:none;stroke:#00EE99;stroke-miterlimit:10;}
	.st16{fill:url(#SVGID_2_);}
	.st17{fill:none;stroke:#004961;stroke-width:2;stroke-miterlimit:10;}
	.st18{fill:url(#SVGID_3_);}
	.st19{fill:#FBB03B;}
	.st20{fill:url(#XMLID_358_);}
	.st21{fill-rule:evenodd;clip-rule:evenodd;fill:#004762;}
	.st22{fill-rule:evenodd;clip-rule:evenodd;fill:#00EE99;}
	.st23{fill:url(#SVGID_4_);}
	.st24{fill:#EBEDEF;}
	.st25{fill:none;stroke:#004762;stroke-width:0.75;stroke-miterlimit:10;}
	.st26{fill:none;stroke:#004762;stroke-miterlimit:10;}
	.st27{fill:#FDC200;}
	.st28{fill:#45C1F1;}
	.st29{fill:#004762;stroke:#FFFFFF;stroke-miterlimit:10;}
	.st30{fill:none;stroke:#004762;stroke-width:0.5;stroke-miterlimit:10;}
	.st31{fill:none;stroke:#39B54A;stroke-miterlimit:10;}
	.st32{fill:url(#SVGID_5_);}
	.st33{fill:url(#SVGID_6_);}
	.st34{fill:none;}
</style>
<path class="st0" d="M17.26,3.98L7.08,14.58c-0.32,0.32-0.84,0.32-1.17,0c0,0,0,0,0,0L0.27,8.94c-0.32-0.32-0.32-0.84,0-1.17
	c0,0,0,0,0,0L2.8,5.24c0.32-0.32,0.84-0.32,1.17,0c0,0,0,0,0,0l2.52,2.53l7.07-7.48c0.32-0.32,0.84-0.32,1.17,0c0,0,0,0,0,0
	l2.53,2.53C17.58,3.13,17.58,3.65,17.26,3.98C17.26,3.98,17.26,3.98,17.26,3.98z"/>
<rect class="st34" width="17.53" height="14.88"/>
</svg>
